HIERARCHY
ROOT Hips
{
	OFFSET 0.000000 100.481300 0.000000
	CHANNELS 6 Xposition Yposition Zposition Xrotation Yrotation Zrotation
	JOINT Spine
	{
		OFFSET -0.279200 12.230698 -2.892100
		CHANNELS 3 Xrotation Yrotation Zrotation
		JOINT Spine1
		{
			OFFSET -0.325700 14.269203 -3.374200
			CHANNELS 3 Xrotation Yrotation Zrotation
			JOINT Spine2
			{
				OFFSET -0.372300 16.307602 -0.352600
				CHANNELS 3 Xrotation Yrotation Zrotation
				JOINT Neck
				{
					OFFSET -0.418800 17.814194 8.416900
					CHANNELS 3 Xrotation Yrotation Zrotation
					JOINT Head
					{
						OFFSET 0.000000 7.031097 3.806800
						CHANNELS 3 Xrotation Yrotation Zrotation
						JOINT HeadTop_End
						{
							OFFSET 0.000000 24.646606 12.978600
							CHANNELS 3 Xrotation Yrotation Zrotation
							End Site
							{
								OFFSET 0.000000 27.854965 0.000000
							}
						}
					}
				}
				JOINT LeftShoulder
				{
					OFFSET 16.952999 14.495407 -7.737500
					CHANNELS 3 Xrotation Yrotation Zrotation
					JOINT LeftArm
					{
						OFFSET 9.308998 -2.777710 0.208600
						CHANNELS 3 Xrotation Yrotation Zrotation
						JOINT LeftForeArm
						{
							OFFSET 29.972298 0.000000 0.000000
							CHANNELS 3 Xrotation Yrotation Zrotation
							JOINT LeftHand
							{
								OFFSET 26.026505 0.000000 0.000000
								CHANNELS 3 Xrotation Yrotation Zrotation
								JOINT LeftHandThumb1
								{
									OFFSET 12.240501 -7.147949 9.207150
									CHANNELS 3 Xrotation Yrotation Zrotation
									JOINT LeftHandThumb2
									{
										OFFSET 4.138618 -2.389435 2.389433
										CHANNELS 3 Xrotation Yrotation Zrotation
										JOINT LeftHandThumb3
										{
											OFFSET 2.726913 -1.574387 1.574386
											CHANNELS 3 Xrotation Yrotation Zrotation
											JOINT LeftHandThumb4
											{
												OFFSET 3.941010 -2.275345 2.275342
												CHANNELS 3 Xrotation Yrotation Zrotation
												End Site
												{
													OFFSET -0.005798 5.087799 0.009903
												}
											}
										}
									}
								}
								JOINT LeftHandIndex1
								{
									OFFSET 24.424698 -1.985611 5.953459
									CHANNELS 3 Xrotation Yrotation Zrotation
									JOINT LeftHandIndex2
									{
										OFFSET 6.426697 0.000000 0.000000
										CHANNELS 3 Xrotation Yrotation Zrotation
										JOINT LeftHandIndex3
										{
											OFFSET 5.337898 0.000000 0.000000
											CHANNELS 3 Xrotation Yrotation Zrotation
											JOINT LeftHandIndex4
											{
												OFFSET 4.409401 0.000000 0.000000
												CHANNELS 3 Xrotation Yrotation Zrotation
												End Site
												{
													OFFSET 0.000000 4.409363 0.014373
												}
											}
										}
									}
								}
								JOINT LeftHandMiddle1
								{
									OFFSET 23.810104 0.000000 0.000000
									CHANNELS 3 Xrotation Yrotation Zrotation
									JOINT LeftHandMiddle2
									{
										OFFSET 7.176498 0.000000 0.000000
										CHANNELS 3 Xrotation Yrotation Zrotation
										JOINT LeftHandMiddle3
										{
											OFFSET 6.774902 0.000000 0.000000
											CHANNELS 3 Xrotation Yrotation Zrotation
											JOINT LeftHandMiddle4
											{
												OFFSET 5.403328 0.000000 0.000000
												CHANNELS 3 Xrotation Yrotation Zrotation
												End Site
												{
													OFFSET -0.027702 5.403244 0.017414
												}
											}
										}
									}
								}
								JOINT LeftHandRing1
								{
									OFFSET 22.908401 -0.839279 -6.020567
									CHANNELS 3 Xrotation Yrotation Zrotation
									JOINT LeftHandRing2
									{
										OFFSET 6.337502 0.000000 0.000000
										CHANNELS 3 Xrotation Yrotation Zrotation
										JOINT LeftHandRing3
										{
											OFFSET 5.779297 0.000000 0.000000
											CHANNELS 3 Xrotation Yrotation Zrotation
											JOINT LeftHandRing4
											{
												OFFSET 4.965698 0.000000 0.000000
												CHANNELS 3 Xrotation Yrotation Zrotation
												End Site
												{
													OFFSET 0.000000 4.965668 0.016186
												}
											}
										}
									}
								}
								JOINT LeftHandPinky1
								{
									OFFSET 20.037003 -1.530319 -10.950146
									CHANNELS 3 Xrotation Yrotation Zrotation
									JOINT LeftHandPinky2
									{
										OFFSET 5.254700 0.000000 0.000000
										CHANNELS 3 Xrotation Yrotation Zrotation
										JOINT LeftHandPinky3
										{
											OFFSET 4.810204 0.000000 0.000000
											CHANNELS 3 Xrotation Yrotation Zrotation
											JOINT LeftHandPinky4
											{
												OFFSET 3.647202 0.000000 0.000000
												CHANNELS 3 Xrotation Yrotation Zrotation
												End Site
												{
													OFFSET 0.000000 3.647186 0.011889
												}
											}
										}
									}
								}
							}
						}
					}
				}
				JOINT RightShoulder
				{
					OFFSET -15.141001 14.495407 -7.737500
					CHANNELS 3 Xrotation Yrotation Zrotation
					JOINT RightArm
					{
						OFFSET -9.308998 -2.777710 0.208500
						CHANNELS 3 Xrotation Yrotation Zrotation
						JOINT RightForeArm
						{
							OFFSET -29.972300 0.000000 0.000000
							CHANNELS 3 Xrotation Yrotation Zrotation
							JOINT RightHand
							{
								OFFSET -26.026505 0.000000 0.000000
								CHANNELS 3 Xrotation Yrotation Zrotation
								JOINT RightHandThumb1
								{
									OFFSET -12.240601 -7.148026 9.207092
									CHANNELS 3 Xrotation Yrotation Zrotation
									JOINT RightHandThumb2
									{
										OFFSET -4.138618 -2.389435 2.389433
										CHANNELS 3 Xrotation Yrotation Zrotation
										JOINT RightHandThumb3
										{
											OFFSET -2.726974 -1.574417 1.574421
											CHANNELS 3 Xrotation Yrotation Zrotation
											JOINT RightHandThumb4
											{
												OFFSET -3.941010 -2.275345 2.275343
												CHANNELS 3 Xrotation Yrotation Zrotation
												End Site
												{
													OFFSET 0.005814 5.087799 0.009927
												}
											}
										}
									}
								}
								JOINT RightHandIndex1
								{
									OFFSET -24.424698 -1.985657 5.953444
									CHANNELS 3 Xrotation Yrotation Zrotation
									JOINT RightHandIndex2
									{
										OFFSET -6.426697 0.000000 0.000000
										CHANNELS 3 Xrotation Yrotation Zrotation
										JOINT RightHandIndex3
										{
											OFFSET -5.337898 0.000000 0.000000
											CHANNELS 3 Xrotation Yrotation Zrotation
											JOINT RightHandIndex4
											{
												OFFSET -4.409401 0.000000 0.000000
												CHANNELS 3 Xrotation Yrotation Zrotation
												End Site
												{
													OFFSET 0.000000 4.409363 0.014408
												}
											}
										}
									}
								}
								JOINT RightHandMiddle1
								{
									OFFSET -23.810097 0.000000 0.000000
									CHANNELS 3 Xrotation Yrotation Zrotation
									JOINT RightHandMiddle2
									{
										OFFSET -7.176498 0.000000 0.000000
										CHANNELS 3 Xrotation Yrotation Zrotation
										JOINT RightHandMiddle3
										{
											OFFSET -6.774902 0.000000 0.000000
											CHANNELS 3 Xrotation Yrotation Zrotation
											JOINT RightHandMiddle4
											{
												OFFSET -5.403328 0.000000 0.000000
												CHANNELS 3 Xrotation Yrotation Zrotation
												End Site
												{
													OFFSET 0.027702 5.403244 0.017457
												}
											}
										}
									}
								}
								JOINT RightHandRing1
								{
									OFFSET -22.908302 -0.839325 -6.020576
									CHANNELS 3 Xrotation Yrotation Zrotation
									JOINT RightHandRing2
									{
										OFFSET -6.337502 0.000000 0.000000
										CHANNELS 3 Xrotation Yrotation Zrotation
										JOINT RightHandRing3
										{
											OFFSET -5.779297 0.000000 0.000000
											CHANNELS 3 Xrotation Yrotation Zrotation
											JOINT RightHandRing4
											{
												OFFSET -4.965698 0.000000 0.000000
												CHANNELS 3 Xrotation Yrotation Zrotation
												End Site
												{
													OFFSET 0.000000 4.965668 0.016226
												}
											}
										}
									}
								}
								JOINT RightHandPinky1
								{
									OFFSET -20.037003 -1.530334 -10.950259
									CHANNELS 3 Xrotation Yrotation Zrotation
									JOINT RightHandPinky2
									{
										OFFSET -5.254700 0.000000 0.000000
										CHANNELS 3 Xrotation Yrotation Zrotation
										JOINT RightHandPinky3
										{
											OFFSET -4.810204 0.000000 0.000000
											CHANNELS 3 Xrotation Yrotation Zrotation
											JOINT RightHandPinky4
											{
												OFFSET -3.647202 0.000000 0.000000
												CHANNELS 3 Xrotation Yrotation Zrotation
												End Site
												{
													OFFSET 0.000000 3.647186 0.011917
												}
											}
										}
									}
								}
							}
						}
					}
				}
			}
		}
	}
	JOINT LeftUpLeg
	{
		OFFSET 15.427100 -6.655098 0.678600
		CHANNELS 3 Xrotation Yrotation Zrotation
		JOINT LeftLeg
		{
			OFFSET 4.081073 -39.591068 13.024000
			CHANNELS 3 Xrotation Yrotation Zrotation
			JOINT LeftFoot
			{
				OFFSET -4.081074 -37.707932 -15.979700
				CHANNELS 3 Xrotation Yrotation Zrotation
				JOINT LeftToeBase
				{
					OFFSET 5.346399 -15.068900 20.645000
					CHANNELS 3 Xrotation Yrotation Zrotation
					JOINT LeftToe_End
					{
						OFFSET 2.754700 0.931300 11.300900
						CHANNELS 3 Xrotation Yrotation Zrotation
						End Site
						{
							OFFSET 0.000000 11.669021 0.000000
						}
					}
				}
			}
		}
	}
	JOINT RightUpLeg
	{
		OFFSET -15.569500 -6.655098 0.678600
		CHANNELS 3 Xrotation Yrotation Zrotation
		JOINT RightLeg
		{
			OFFSET -4.081825 -39.591045 13.023800
			CHANNELS 3 Xrotation Yrotation Zrotation
			JOINT RightFoot
			{
				OFFSET 4.081824 -37.707954 -15.979600
				CHANNELS 3 Xrotation Yrotation Zrotation
				JOINT RightToeBase
				{
					OFFSET -5.346400 -15.068900 20.645000
					CHANNELS 3 Xrotation Yrotation Zrotation
					JOINT RightToe_End
					{
						OFFSET -2.754700 0.931300 11.300900
						CHANNELS 3 Xrotation Yrotation Zrotation
						End Site
						{
							OFFSET 0.000000 11.669021 0.000000
						}
					}
				}
			}
		}
	}
}
MOTION
Frames: 4
Frame Time: 0.033333
-1.090392 79.022926 35.330692 40.594847 4.649635 -0.153396 9.054557 -0.043908 -0.210040 -2.599199 -0.445334 1.027053 -2.604642 -0.392704 1.069709 1.105609 -2.183530 3.162180 -40.711875 -4.981511 -8.847400 0.000000 0.000000 -0.000000 -0.031526 -4.396831 7.859668 -32.296423 -42.589330 -1.602058 -0.000060 -104.530472 -0.000061 -11.098064 -19.864149 38.085623 -32.850061 4.558898 -30.707906 1.020884 22.511434 -18.143276 -5.206879 35.651846 35.479431 -0.000002 0.000001 -0.000001 0.495536 1.726726 1.389851 0.977850 3.242240 -33.558605 0.598598 2.581707 -26.103880 0.000003 0.000000 -0.000000 0.484685 5.216152 -10.119806 0.968927 3.228763 -33.400496 0.252125 1.701752 -16.853029 -0.000000 0.000001 0.000000 1.025085 8.121222 -10.169969 1.197486 3.550604 -37.264508 0.580058 2.543566 -25.689412 -0.000001 -0.000001 0.000002 -11.814912 22.504573 -3.974493 1.306105 3.688728 -38.984756 0.721326 2.818158 -28.708972 0.000001 0.000000 0.000001 -1.145980 -4.507593 -12.104949 -35.492060 23.088196 21.869228 0.000014 121.095853 -0.000014 -16.965131 17.816192 -25.598707 17.372217 34.159989 -9.265687 5.839798 -26.910578 32.868397 -0.019933 -41.516342 -10.029219 0.000001 0.000002 -0.000001 2.242531 -0.263584 12.850073 0.340582 -1.749886 22.026141 0.315329 -1.686169 21.184084 0.000001 0.000001 0.000000 0.857585 -5.262816 20.775023 0.925263 -2.788018 36.712776 0.093695 -0.930456 11.499961 -0.000002 -0.000000 0.000001 1.461366 -7.223476 18.536042 0.745929 -2.530077 32.848460 1.028306 -2.920946 38.781691 0.000001 -0.000001 0.000003 -7.730201 -14.073051 19.413418 0.298729 -1.642730 20.612865 0.563671 -2.222821 28.455654 -0.000000 0.000002 -0.000001 -77.633563 -4.081790 12.378033 43.248809 6.479984 -1.177253 -4.224241 -4.073830 -14.376088 -0.106036 -0.000007 -0.000003 0.000000 -0.000001 -0.000000 -78.665324 6.928568 -14.008972 48.489815 -6.037395 0.232644 -6.103264 -7.427324 13.025713 -0.434543 0.000002 0.000001 -0.000000 -0.000000 0.000000 
-1.083654 79.919083 35.438931 39.102044 4.687480 -0.163238 8.918598 -0.006653 -0.160784 -2.855651 -0.413785 1.075249 -2.860910 -0.358287 1.118789 0.394235 -2.262373 3.014964 -39.408218 -5.406204 -8.988082 0.000000 -0.000000 0.000000 0.092213 -5.200771 7.880951 -30.707772 -45.284707 -4.813889 -0.000133 -96.430564 -0.000131 -10.022450 -20.636221 33.356899 -29.064852 1.143050 -26.142991 2.287982 22.811146 -18.926563 -3.825203 36.862316 31.794247 0.000002 -0.000000 0.000000 0.625345 2.401991 -6.373562 0.974493 3.237184 -33.499271 0.636581 2.657737 -26.934858 -0.000002 0.000003 -0.000004 0.781966 5.711420 -15.667006 1.140659 3.474813 -36.337286 0.326444 1.930049 -19.198355 0.000000 0.000001 -0.000002 1.652445 8.565926 -16.263435 1.346568 3.738067 -39.609619 0.706547 2.791040 -28.407044 0.000001 0.000001 -0.000001 -7.860188 22.839396 -13.386799 1.450021 3.859409 -41.171130 0.792527 2.944272 -30.125448 -0.000000 -0.000001 0.000002 -0.662555 -4.232033 -11.629579 -32.386961 24.650192 21.851734 -0.000028 118.557317 0.000027 -19.537285 20.002137 -24.921240 11.462701 27.274936 -4.786377 7.899689 -28.847140 33.321358 0.295306 -44.074200 -9.597878 -0.000001 -0.000002 -0.000001 1.428088 0.242364 18.606163 0.538482 -2.175748 27.799300 0.551735 -2.200662 28.146139 0.000000 -0.000002 -0.000000 1.243534 -5.690866 27.882248 1.281758 -3.210577 43.518250 0.247504 -1.499532 18.744418 -0.000000 0.000002 -0.000001 2.024922 -7.355183 26.233259 1.187548 -3.108479 41.808630 1.400720 -3.331164 45.602875 0.000001 -0.000001 -0.000000 -4.342969 -16.220320 29.134001 0.568666 -2.231987 28.583773 0.860096 -2.698523 35.351171 0.000001 0.000002 0.000000 -75.137470 -3.684844 12.412856 41.839212 6.676373 -1.138342 -3.917000 -4.481691 -14.189690 -0.106039 0.000008 -0.000001 -0.000000 -0.000001 0.000000 -76.094052 6.363636 -14.000559 47.054532 -6.056423 0.174487 -5.861855 -7.387758 12.847889 -0.434694 0.000009 0.000002 -0.000000 -0.000000 -0.000000 
-1.080707 80.909233 35.534481 37.613647 4.725517 -0.178828 8.791531 0.029139 -0.103497 -3.095016 -0.390508 1.133800 -3.100400 -0.333232 1.177575 -0.443630 -2.296562 2.675666 -38.027372 -5.766253 -9.061859 0.000000 0.000000 0.000001 0.316902 -6.471510 6.948206 -30.738812 -48.493841 -10.148432 -0.001180 -87.646668 -0.001228 -7.521356 -20.419557 30.728024 -22.340345 -2.942352 -20.418671 4.442391 23.150585 -20.134288 -1.930012 38.603256 26.509088 0.000001 0.000000 -0.000001 0.942106 3.295658 -17.511536 0.963324 3.220275 -33.301007 0.690128 2.760506 -28.067954 -0.000002 0.000001 -0.000003 1.294442 6.388863 -23.577728 1.407705 3.810606 -40.538494 0.448980 2.251078 -22.556116 -0.000001 0.000000 -0.000003 2.632841 9.096327 -25.087469 1.570477 3.992640 -42.930304 0.906833 3.132719 -32.281585 -0.000004 -0.000001 -0.000001 -2.676546 22.151483 -26.969970 1.667043 4.093737 -44.299781 0.899692 3.121396 -32.150578 -0.000002 0.000002 0.000000 0.005649 -3.722605 -10.753217 -28.910692 26.187833 22.508803 0.000025 114.641215 -0.000023 -21.589666 22.231977 -24.457879 6.226456 19.916067 -1.471440 10.026713 -30.761734 33.848208 0.601324 -46.641029 -9.153509 0.000001 0.000002 -0.000000 0.401429 0.621972 24.873888 0.802366 -2.615361 34.106300 0.879071 -2.725076 35.752646 0.000003 0.000001 -0.000002 1.684054 -6.079461 35.000536 1.727299 -3.621678 50.984739 0.494561 -2.090351 26.618992 0.000001 0.000002 -0.000001 2.569496 -7.428455 33.967111 1.715364 -3.611977 50.795256 1.860886 -3.725719 53.069176 -0.000000 0.000000 -0.000000 -0.457283 -17.541690 39.212058 0.954222 -2.826411 37.304219 1.246818 -3.173401 42.890501 -0.000002 -0.000003 -0.000000 -72.536636 -3.266539 12.416272 40.193925 6.819806 -1.090749 -3.488381 -4.818476 -13.964116 -0.106053 0.000001 -0.000005 0.000000 0.000001 -0.000000 -73.423270 5.752681 -13.968171 45.394277 -6.085275 0.111390 -5.513652 -7.333076 12.644091 -0.434833 -0.000000 -0.000003 0.000000 -0.000002 -0.000000 
-1.075667 81.925995 35.622833 36.137544 4.761671 -0.199227 8.672654 0.062379 -0.037850 -3.319661 -0.386345 1.201313 -3.325627 -0.327386 1.243980 -1.430967 -2.291060 2.338515 -36.383683 -6.053127 -8.943873 0.000000 -0.000001 -0.000000 0.547489 -7.848274 4.511415 -32.423314 -51.985697 -17.219180 -0.000047 -78.518379 -0.000047 -2.147311 -20.312001 32.129179 -13.802204 -6.342934 -15.378350 6.965401 23.381508 -21.338491 0.201614 40.500761 20.510373 0.000001 0.000001 0.000000 1.448205 4.172181 -29.796195 0.942723 3.188738 -32.932546 0.747825 2.865951 -29.243356 -0.000001 -0.000001 0.000001 1.972724 7.063103 -32.270059 1.724611 4.151767 -45.100548 0.603712 2.592091 -26.217049 0.000002 0.000002 -0.000001 3.789254 9.505374 -34.843244 1.826907 4.250980 -46.496649 1.149458 3.486713 -36.482233 -0.000003 -0.000001 -0.000001 1.872663 20.117858 -41.596982 1.913748 4.331517 -47.657225 1.020982 3.306225 -34.313740 0.000002 -0.000002 0.000000 0.887693 -2.807360 -9.270816 -24.865476 27.729870 24.243963 -0.000005 108.504481 0.000004 -22.673042 24.548438 -24.616634 2.139694 13.300934 0.393228 11.842967 -32.326698 34.325747 0.834785 -48.779408 -8.774524 0.000001 0.000000 0.000001 -0.570631 0.780393 30.307281 1.068817 -2.970619 39.570264 1.216694 -3.140727 42.343567 0.000001 -0.000001 0.000001 2.090202 -6.366480 40.944136 2.152118 -3.927308 57.431168 0.773788 -2.572670 33.474501 0.000002 -0.000001 -0.000001 3.004575 -7.448861 40.456331 2.208043 -3.962415 58.244165 2.297475 -4.016236 59.529422 -0.000000 0.000001 -0.000001 2.976104 -17.937970 47.849140 1.357508 -3.288377 44.854330 1.629635 -3.540447 49.420950 -0.000002 -0.000003 -0.000002 -69.914001 -2.838280 12.392306 38.436118 6.827002 -1.033063 -2.986027 -5.010159 -13.693735 -0.106041 -0.000004 -0.000000 0.000000 0.000001 -0.000000 -70.730564 5.114496 -13.919768 43.628731 -6.104303 0.047584 -5.103780 -7.267607 12.427165 -0.434957 0.000005 -0.000001 0.000000 -0.000001 0.000000 
